<svg xmlns="http://www.w3.org/2000/svg" viewBox="0 0 378.91 374.44"><defs><style>.cls-1{fill:#fff;}</style></defs><title>logo1</title><g id="Layer_2" data-name="Layer 2"><g id="Layer_1-2" data-name="Layer 1"><path class="cls-1" d="M356,126.82v6a6,6,0,0,1,6,6v198a6,6,0,0,1-6,6H12a6,6,0,0,1-6-6v-198a6,6,0,0,1,6-6H356v-6m0,0H12a12,12,0,0,0-12,12v198a12,12,0,0,0,12,12H356a12,12,0,0,0,12-12v-198a12,12,0,0,0-12-12Z"/><path class="cls-1" d="M331.53,141.58v3a9,9,0,0,1,9,9V322.06a9,9,0,0,1-9,9H36.47a9,9,0,0,1-9-9V153.58a9,9,0,0,1,9-9H331.53v-3m0,0H36.47a12,12,0,0,0-12,12V322.06a12,12,0,0,0,12,12H331.53a12,12,0,0,0,12-12V153.58a12,12,0,0,0-12-12Z"/><path class="cls-1" d="M150.56,220.25l.78-10.26.77-15.3.49-15h-2.46l-2.28,0-2.18,0-8.11.24c.19-3.37.29-5.94.32-7.7q10.11.08,21.19.07l12.62,0,6.74,0q-.34,5-.35,7.7-6.36-.32-12.2-.31h-2.7l-.42,6.42-1,24.71-.07,4.14c0,1.71,0,3.48,0,5.33l-5.35-.07Z"/><path class="cls-1" d="M195,220.25l-1.33-4.43q-.28-.87-2.32-6.71l-6.83-19.41-6.26-17.44q3.61.08,6,.07c1,0,2.71,0,5.17-.07l1.09,3.91c.24.79.58,1.87,1,3.23l8.54,25.77q.78,2.51,2,6.58l1.9-4.29q.69-1.59,2.91-6.19L218,178.14c.33-.68.66-1.41,1-2.17s.85-2,1.55-3.71c2.55.05,4.49.07,5.83.07.8,0,2.63,0,5.52-.07l-3,5.63-19.21,38-2,4.39c-3,0-5.09-.07-6.12-.07Z"/><path class="cls-1" d="M54.09,181.44c3-18,44-23,44-23-1,0-56-12-62,8,0,21.44-1,96-1,96"/><path class="cls-1" d="M54.12,295.59c-.19-3.57-.44-6.47-.74-8.72A30.72,30.72,0,0,0,65.89,290a12.5,12.5,0,0,0,4.2-.69A6,6,0,0,0,73,287.38a4.58,4.58,0,0,0,.93-2.8,4.94,4.94,0,0,0-.45-2.14,9.86,9.86,0,0,0-2.24-2.71q-2-1.94-7.17-6.36-2.46-2.14-3.4-3.06a26.07,26.07,0,0,1-3.23-3.6,11.58,11.58,0,0,1-1.62-3.19,11.21,11.21,0,0,1-.49-3.37,11.4,11.4,0,0,1,1.85-6.21,12.19,12.19,0,0,1,5.52-4.53,22.82,22.82,0,0,1,9.26-1.64A59.66,59.66,0,0,1,83.26,249q.18,3.66.7,8.37a28.39,28.39,0,0,0-10.1-2.11,9.4,9.4,0,0,0-5.63,1.57,4.44,4.44,0,0,0-2.2,3.64,4.5,4.5,0,0,0,.16,1.17,5.46,5.46,0,0,0,.45,1.2,9.71,9.71,0,0,0,1.09,1.51,18.61,18.61,0,0,0,2.3,2.18c1,.83,1.86,1.51,2.58,2L77,272.49q1.65,1.36,2.94,2.67a26.69,26.69,0,0,1,2.23,2.5,12.88,12.88,0,0,1,1.46,2.28,11,11,0,0,1,.79,2.23,11.13,11.13,0,0,1,.26,2.41,11.93,11.93,0,0,1-1.37,5.58,11.43,11.43,0,0,1-3.94,4.3,16.12,16.12,0,0,1-5.62,2.34,31.33,31.33,0,0,1-6.47.65,41.11,41.11,0,0,1-5.24-.39C60,296.81,57.37,296.31,54.12,295.59Z"/><path class="cls-1" d="M92.33,296.61,93.15,284q.67-10.35,1-19.18t.28-12.32l0-3.87c2.76,0,4.71.07,5.86.07.86,0,2.63,0,5.29-.07l-.92,15.85-.11,3.66h23.93l.43-9.51q.15-4.89.15-6.44v-3.56l5.88.07c.51,0,2.27,0,5.27-.07L139,267.78l-.49,14.2-.13,8.33c-.05,3.43-.07,5.52-.07,6.3l-5.49-.07c-.68,0-2.63,0-5.84.07q.92-10,1.17-20.92h-24l-.49,12.94-.15,8-5.77-.07C97.08,296.54,95.29,296.56,92.33,296.61Z"/><path class="cls-1" d="M175.44,247.77a34.55,34.55,0,0,1,10.05,1.45,22.72,22.72,0,0,1,8.55,4.69,21.33,21.33,0,0,1,5.62,7.58,24.82,24.82,0,0,1,1.9,10.09,30.24,30.24,0,0,1-1.79,10.35,21.9,21.9,0,0,1-5.56,8.51,23.38,23.38,0,0,1-9.16,5.29,38,38,0,0,1-22.14.14,23.29,23.29,0,0,1-8.93-5,19.29,19.29,0,0,1-5.36-7.75,27.12,27.12,0,0,1-1.62-9.48A28.67,28.67,0,0,1,149,263a21.15,21.15,0,0,1,5.94-8.44,26.78,26.78,0,0,1,9.18-5.06A36,36,0,0,1,175.44,247.77Zm-.56,7.49a17.19,17.19,0,0,0-9.25,2.45,15.29,15.29,0,0,0-5.92,6.68,21.17,21.17,0,0,0-2,9.15,18.57,18.57,0,0,0,1.92,8.42,12.84,12.84,0,0,0,5.89,5.87,19.07,19.07,0,0,0,15.22.83,14.48,14.48,0,0,0,5.47-3.64,16,16,0,0,0,3.46-5.89,22.35,22.35,0,0,0,1.16-7.17,21.6,21.6,0,0,0-1-6.68,14.24,14.24,0,0,0-3.22-5.5,13.39,13.39,0,0,0-5.25-3.41A18.85,18.85,0,0,0,174.88,255.26Z"/><path class="cls-1" d="M222.25,296.61q-8.62-24.19-17.91-48c2.25,0,4.07.07,5.48.07s3.37,0,5.48-.07l9.84,29.09,4.12,11.45q1.34-2.61,4-8.34t3.85-8.49q-1.62-4.92-4.1-11.91t-4.34-11.8c2,0,3.74.07,5.24.07,1.66,0,3.41,0,5.24-.07q1.65,6.36,3.67,12.58,2.94-6.36,5.39-12.58c2,0,3.68.07,4.93.07,1.43,0,3.07,0,4.92-.07q-2.25,4.5-5.58,11.49t-5.36,11.67c.52,1.69,1.48,4.55,2.9,8.58s2.45,6.89,3.1,8.55l9.44-20.11,6.84-15.05,2.25-5.13c2.25,0,4.06.07,5.42.07s3.32,0,5.46-.07L276,261.73l-13.81,28.34-3.09,6.54q-3.76-.08-6.44-.07t-6.47.07q-2.09-7.1-4.58-13.93-3.33,6.84-6.32,13.93-3.75-.08-6.5-.07T222.25,296.61Z"/><path class="cls-1" d="M282.81,295.59c-.19-3.57-.44-6.47-.74-8.72A30.72,30.72,0,0,0,294.58,290a12.6,12.6,0,0,0,4.21-.69,5.94,5.94,0,0,0,2.88-1.93,4.58,4.58,0,0,0,.93-2.8,4.94,4.94,0,0,0-.45-2.14,9.86,9.86,0,0,0-2.24-2.71q-2-1.94-7.17-6.36-2.46-2.14-3.39-3.06a25.58,25.58,0,0,1-3.24-3.6,10.77,10.77,0,0,1-2.11-6.56,11.4,11.4,0,0,1,1.85-6.21,12.19,12.19,0,0,1,5.52-4.53,22.82,22.82,0,0,1,9.26-1.64A59.57,59.57,0,0,1,312,249q.18,3.66.7,8.37a28.35,28.35,0,0,0-10.1-2.11,9.42,9.42,0,0,0-5.63,1.57,4.46,4.46,0,0,0-2.2,3.64,5,5,0,0,0,.16,1.17,5,5,0,0,0,.46,1.2,8.52,8.52,0,0,0,1.09,1.51,17.72,17.72,0,0,0,2.29,2.18c1,.83,1.87,1.51,2.58,2l4.34,3.94c1.1.91,2.08,1.8,2.95,2.67a28,28,0,0,1,2.22,2.5,12.88,12.88,0,0,1,1.46,2.28,11,11,0,0,1,.79,2.23,11.13,11.13,0,0,1,.26,2.41,11.81,11.81,0,0,1-1.37,5.58,11.43,11.43,0,0,1-3.94,4.3,16.12,16.12,0,0,1-5.62,2.34,31.33,31.33,0,0,1-6.47.65,41.11,41.11,0,0,1-5.24-.39C288.69,296.81,286.06,296.31,282.81,295.59Z"/><path class="cls-1" d="M271.21,45.23a2.91,2.91,0,0,0-1.08.2h0a3,3,0,0,0-1.7,3.89l30.84,78.55a3,3,0,0,0,2.8,1.91,2.92,2.92,0,0,0,1.08-.21,3,3,0,0,0,1.7-3.89L274,47.13a3,3,0,0,0-2.8-1.9Z"/><path class="cls-1" d="M375.91,3,322.27,126.88,375.91,3h0m0-3a3,3,0,0,0-2.76,1.81L319.52,125.69a3,3,0,0,0,1.56,3.95,3.12,3.12,0,0,0,1.19.24,3,3,0,0,0,2.76-1.8L378.67,4.19A3,3,0,0,0,377.11.25,3,3,0,0,0,375.92,0Z"/><rect class="cls-1" x="38.5" y="354.44" width="291" height="20" rx="10"/></g></g></svg>
